<svg width="300" height="300" viewBox="0 0 300 300" fill="none" xmlns="http://www.w3.org/2000/svg">
<g clip-path="url(#clip0_20_77)">
<path d="M94.377 271.875C207.557 271.875 269.479 178.084 269.479 96.7738C269.479 94.1371 269.42 91.4418 269.303 88.8051C281.348 80.0938 291.744 69.3037 300 56.9418C288.782 61.933 276.871 65.1928 264.674 66.6097C277.516 58.9119 287.132 46.8189 291.738 32.5726C279.657 39.7325 266.445 44.7832 252.668 47.5082C243.386 37.6451 231.112 31.1145 217.746 28.9262C204.38 26.7379 190.665 29.0137 178.722 35.4018C166.779 41.7898 157.273 51.9344 151.673 64.2669C146.074 76.5995 144.693 90.4332 147.744 103.629C123.281 102.402 99.3492 96.0468 77.4998 84.9768C55.6504 73.9067 36.3712 58.3685 20.9121 39.3695C13.055 52.9161 10.6507 68.9461 14.1879 84.2017C17.7251 99.4573 26.9383 112.794 39.9551 121.5C30.1829 121.19 20.6247 118.559 12.0703 113.825V114.586C12.0616 128.802 16.9763 142.583 25.9789 153.585C34.9816 164.587 47.5166 172.133 61.4532 174.938C52.4007 177.415 42.8998 177.776 33.6856 175.993C37.6182 188.218 45.2697 198.912 55.5722 206.58C65.8746 214.248 78.314 218.508 91.1543 218.766C69.3553 235.889 42.4272 245.177 14.7071 245.133C9.79112 245.126 4.88002 244.824 3.05176e-05 244.231C28.1607 262.297 60.9192 271.893 94.377 271.875Z" fill="white"/>
</g>
<defs>
<clipPath id="clip0_20_77">
<rect width="300" height="300" fill="white"/>
</clipPath>
</defs>
</svg>
